PathFileType	4	(x/y/z)	Passive_Pref0007.trc
DataRate	CameraRate	NumFrames	NumMarkers	Units	OrigDataRate	OrigDataStartFrame	OrigNumFrames
240	240	4	50	mm	240	187	299
Frame#	Time	R_AC			L_AC			HEAD			STERN			C7			L_IC			R_IC			L_ASIS			R_ASIS			L_GT			R_GT			R_PSIS			L_PSIS			SACRAL			L_LAT_KNEE			L_MED_KNEE			R_LAT_KNEE			R_MED_KNEE			L_LAT_ANK			L_MED_ANK			R_LAT_ANK			R_MED_ANK			L_THIGH_PROX_POST			L_THIGH_PROX_ANT			L_THIGH_DIST_ANT			L_THIGH_DIST_POST			R_THIGH_PROX_POST			R_THIGH_PROX_ANT			R_THIGH_DIST_ANT			R_THIGH_DIST_POST			L_SHANK_PROX_POST			L_SHANK_PROX_ANT			L_SHANK_DIST_ANT			L_SHANK_DIST_POST			R_SHANK_PROX_POST			R_SHANK_PROX_ANT			R_SHANK_DIST_ANT			R_SHANK_DIST_POST			L_HEEL_LAT			L_HEEL_SUP			L_HEEL_MED			R_HEEL_LAT			R_HEEL_SUP			R_HEEL_MED			L_1ST_MET			L_5TH_MET			L_TOE			R_1ST_MET			R_5TH_MET			R_TOE			
		X1	Y1	Z1	X2	Y2	Z2	X3	Y3	Z3	X4	Y4	Z4	X5	Y5	Z5	X6	Y6	Z6	X7	Y7	Z7	X8	Y8	Z8	X9	Y9	Z9	X10	Y10	Z10	X11	Y11	Z11	X12	Y12	Z12	X13	Y13	Z13	X14	Y14	Z14	X15	Y15	Z15	X16	Y16	Z16	X17	Y17	Z17	X18	Y18	Z18	X19	Y19	Z19	X20	Y20	Z20	X21	Y21	Z21	X22	Y22	Z22	X23	Y23	Z23	X24	Y24	Z24	X25	Y25	Z25	X26	Y26	Z26	X27	Y27	Z27	X28	Y28	Z28	X29	Y29	Z29	X30	Y30	Z30	X31	Y31	Z31	X32	Y32	Z32	X33	Y33	Z33	X34	Y34	Z34	X35	Y35	Z35	X36	Y36	Z36	X37	Y37	Z37	X38	Y38	Z38	X39	Y39	Z39	X40	Y40	Z40	X41	Y41	Z41	X42	Y42	Z42	X43	Y43	Z43	X44	Y44	Z44	X45	Y45	Z45	X46	Y46	Z46	X47	Y47	Z47	X48	Y48	Z48	X49	Y49	Z49	X50	Y50	Z50	

187	0.7776	187.34	1497.4	523.95	166.43	1533.5	121.05	234.56	1827.6	346.74	263.41	1463.1	325.48	110.45	1555.3	330.74	138.92	1079.9	145.17	172.85	1103.1	488.91	212.25	1001.3	170.35	246.13	1029.9	438.58	99.519	921.22	134.29	163.16	943.56	499.56	20.344	1010.1	374.55	9.5189	1012.6	289.41	4.8627	977.91	330.9	75.801	519.82	145.52	107.36	505.54	279.71	305.37	545.32	455.89	293.95	547.98	321.51	-284.79	256.83	176.67	-291.6	262.37	259.47	271.46	87.361	406.67	302.62	111.65	305.42	124.26	756.29	135.98	188.93	747.08	158.5	176.81	675.03	164.82	121.86	679.38	141.69	170.87	785.38	480.4	227.46	806.11	500.63	243.87	733.09	488.47	195.45	716.36	469.16	37.552	480.82	158.66	94.383	458.76	167.62	45.952	412.87	182.23	-5.8215	436.1	162.78	262.28	379.8	460.97	319.7	381.95	451.3	317.7	307.07	438.63	262.35	302.7	446.15	-374.93	255.75	176.86	-366.15	285.01	210.15	-387.1	262.54	245.93	198.71	41.486	365.39	201.5	69.521	329.89	228.41	43.681	305.66	-248.57	96.064	284.36	-248.69	100.93	168.05	-187.28	69.821	249.15	442.4	49.621	322.74	397.84	40.564	435.91	488.2	63.927	382.22
188	0.78178	192.37	1498.3	524.27	171.15	1534.1	121.34	239.75	1828.3	347.38	268.29	1463.9	325.76	115.36	1556	331.1	144.03	1080.5	145.86	178.15	1103.7	489.53	217.66	1002.3	171.05	251.33	1030.4	439.31	105.53	921.68	134.91	168.27	943.98	500.09	25.529	1010.7	375.13	14.754	1012.8	289.94	10.139	978.3	331.57	86.099	520.26	145.09	117.71	505.85	279.28	308.47	545.12	456.14	297.25	547.94	321.72	-276.19	259.59	176.79	-282.78	265.22	259.6	271.66	87.47	406.54	302.89	111.61	305.29	132.27	756.77	136.14	197.11	748.21	158.54	185.99	676.07	164.76	130.7	679.85	141.65	175.23	785.82	480.75	231.95	806.27	501.01	248.14	733.15	488.69	199.58	716.68	469.45	47.607	481.51	158.3	104.31	459.08	167.2	55.608	413.49	181.9	3.9412	437.07	162.48	264.27	379.92	461.01	321.71	381.69	451.42	319.25	306.84	438.71	263.87	302.84	446.15	-366.33	259.07	177.12	-357.3	288.3	210.38	-378.45	266.03	246.18	198.79	41.673	365.39	201.64	69.681	329.91	228.48	43.774	305.66	-240.83	98.677	284.53	-241.08	103.45	168.21	-179.77	71.994	249.25	442.52	49.239	322.68	397.94	40.484	435.94	488.31	63.445	382.15
189	0.78596	197.4	1499.1	524.59	175.82	1534.6	121.61	244.93	1829.1	347.97	273.15	1464.8	326.03	120.25	1556.8	331.46	149.11	1081.2	146.53	183.43	1104.4	490.15	223.04	1003.3	171.74	256.49	1030.9	440.02	111.5	922.19	135.5	173.33	944.4	500.6	30.681	1011.3	375.68	19.966	1013	290.45	15.38	978.72	332.22	96.417	520.78	144.65	128.07	506.27	278.85	311.47	544.92	456.41	300.47	547.9	321.96	-267.39	262.22	176.91	-273.78	267.93	259.71	271.85	87.576	406.44	303.15	111.57	305.18	140.25	757.33	136.29	205.25	749.41	158.53	195.15	677.18	164.64	139.53	680.4	141.57	179.51	786.26	481.11	236.36	806.43	501.4	252.35	733.21	488.91	203.61	717.02	469.76	57.709	482.26	157.93	114.29	459.5	166.77	65.352	414.17	181.56	13.78	438.07	162.17	266.2	380.03	461.08	323.64	381.45	451.58	320.75	306.61	438.83	265.34	302.97	446.18	-357.53	262.19	177.35	-348.28	291.39	210.59	-369.6	269.3	246.4	198.88	41.865	365.39	201.78	69.851	329.93	228.54	43.88	305.66	-232.79	101.19	284.7	-233.17	105.87	168.36	-171.94	74.108	249.34	442.64	48.889	322.65	398.03	40.394	435.98	488.42	62.971	382.11
190	0.79014	202.41	1500	524.9	180.46	1535.2	121.87	250.09	1829.8	348.53	278	1465.7	326.28	125.13	1557.5	331.81	154.17	1081.9	147.19	188.7	1105	490.75	228.4	1004.4	172.4	261.62	1031.4	440.72	117.45	922.77	136.06	178.34	944.84	501.1	35.803	1011.9	376.2	25.161	1013.4	290.94	20.59	979.17	332.83	106.75	521.37	144.21	138.44	506.78	278.41	314.37	544.72	456.71	303.6	547.84	322.23	-258.4	264.69	177	-264.6	270.48	259.8	272.04	87.679	406.35	303.4	111.56	305.1	148.21	757.94	136.41	213.35	750.68	158.47	204.28	678.36	164.47	148.35	681.03	141.47	183.71	786.72	481.47	240.69	806.61	501.79	256.48	733.28	489.15	207.56	717.37	470.08	67.851	483.05	157.55	124.32	460	166.34	75.176	414.91	181.21	23.689	439.09	161.86	268.05	380.15	461.2	325.51	381.21	451.77	322.19	306.39	438.99	266.75	303.1	446.25	-348.53	265.1	177.56	-339.09	294.28	210.79	-360.54	272.35	246.61	198.96	42.063	365.4	201.92	70.031	329.96	228.61	43.999	305.67	-224.46	103.58	284.87	-224.96	108.16	168.51	-163.81	76.146	249.44	442.77	48.569	322.64	398.12	40.293	436.04	488.54	62.505	382.1
